<svg width="120" height="120" viewBox="0 0 120 120" fill="none" xmlns="http://www.w3.org/2000/svg">
  <!-- Central white circle -->
  <circle cx="60" cy="60" r="20" fill="#F2F2F2" opacity="0.95"/>
  
  <!-- Inner hexagon ring - Electric Indigo -->
  <g opacity="0.8">
    <path d="M60 25 L75 35 L75 55 L60 65 L45 55 L45 35 Z" fill="none" stroke="#5D5DFF" stroke-width="2"/>
  </g>
  
  <!-- Outer hexagon ring - Cyan/Mint -->
  <g opacity="0.6">
    <path d="M60 10 L85 25 L85 65 L60 80 L35 65 L35 25 Z" fill="none" stroke="#00FFC2" stroke-width="2"/>
  </g>
  
  <!-- Connection nodes and lines -->
  <!-- Top -->
  <line x1="60" y1="10" x2="60" y2="0" stroke="#5D5DFF" stroke-width="1.5" stroke-dasharray="2,3"/>
  <circle cx="60" cy="5" r="2" fill="#00FFC2"/>
  
  <!-- Top Right -->
  <line x1="85" y1="25" x2="95" y2="18" stroke="#5D5DFF" stroke-width="1.5" stroke-dasharray="2,3"/>
  <circle cx="95" cy="18" r="2" fill="#00FFC2"/>
  
  <!-- Bottom Right -->
  <line x1="85" y1="65" x2="95" y2="72" stroke="#5D5DFF" stroke-width="1.5" stroke-dasharray="2,3"/>
  <circle cx="95" cy="72" r="2" fill="#00FFC2"/>
  
  <!-- Bottom -->
  <line x1="60" y1="80" x2="60" y2="90" stroke="#5D5DFF" stroke-width="1.5" stroke-dasharray="2,3"/>
  <circle cx="60" cy="90" r="2" fill="#00FFC2"/>
  
  <!-- Bottom Left -->
  <line x1="35" y1="65" x2="25" y2="72" stroke="#5D5DFF" stroke-width="1.5" stroke-dasharray="2,3"/>
  <circle cx="25" cy="72" r="2" fill="#00FFC2"/>
  
  <!-- Top Left -->
  <line x1="35" y1="25" x2="25" y2="18" stroke="#5D5DFF" stroke-width="1.5" stroke-dasharray="2,3"/>
  <circle cx="25" cy="18" r="2" fill="#00FFC2"/>
  
  <!-- Corner extension nodes -->
  <circle cx="95" cy="25" r="1.5" fill="#5D5DFF" opacity="0.5"/>
  <circle cx="100" cy="60" r="1.5" fill="#5D5DFF" opacity="0.5"/>
  <circle cx="95" cy="95" r="1.5" fill="#5D5DFF" opacity="0.5"/>
  <circle cx="25" cy="95" r="1.5" fill="#5D5DFF" opacity="0.5"/>
  <circle cx="20" cy="60" r="1.5" fill="#5D5DFF" opacity="0.5"/>
  <circle cx="25" cy="25" r="1.5" fill="#5D5DFF" opacity="0.5"/>
  
  <!-- Hexagon corners - smaller hexagons -->
  <g opacity="0.4">
    <!-- Top -->
    <path d="M60 5 L63 7 L63 11 L60 13 L57 11 L57 7 Z" fill="none" stroke="#888888" stroke-width="1"/>
    <!-- Top Right -->
    <path d="M95 18 L98 20 L98 24 L95 26 L92 24 L92 20 Z" fill="none" stroke="#888888" stroke-width="1"/>
    <!-- Bottom Right -->
    <path d="M95 72 L98 74 L98 78 L95 80 L92 78 L92 74 Z" fill="none" stroke="#888888" stroke-width="1"/>
    <!-- Bottom -->
    <path d="M60 90 L63 92 L63 96 L60 98 L57 96 L57 92 Z" fill="none" stroke="#888888" stroke-width="1"/>
    <!-- Bottom Left -->
    <path d="M25 72 L28 74 L28 78 L25 80 L22 78 L22 74 Z" fill="none" stroke="#888888" stroke-width="1"/>
    <!-- Top Left -->
    <path d="M25 18 L28 20 L28 24 L25 26 L22 24 L22 20 Z" fill="none" stroke="#888888" stroke-width="1"/>
  </g>
  
  <!-- Glow effect for center -->
  <circle cx="60" cy="60" r="22" fill="none" stroke="#5D5DFF" stroke-width="0.5" opacity="0.3"/>
  <circle cx="60" cy="60" r="24" fill="none" stroke="#00FFC2" stroke-width="0.5" opacity="0.2"/>
</svg>
