<svg width="120" height="120" viewBox="0 0 120 120" fill="none" xmlns="http://www.w3.org/2000/svg">
  <defs>
    <!-- Glow filters for hexagons -->
    <filter id="glowIndigo" x="-50%" y="-50%" width="200%" height="200%">
      <feGaussianBlur stdDeviation="3" result="coloredBlur"/>
      <feMerge>
        <feMergeNode in="coloredBlur"/>
        <feMergeNode in="SourceGraphic"/>
      </feMerge>
    </filter>
    <filter id="glowCyan" x="-50%" y="-50%" width="200%" height="200%">
      <feGaussianBlur stdDeviation="2.5" result="coloredBlur"/>
      <feMerge>
        <feMergeNode in="coloredBlur"/>
        <feMergeNode in="SourceGraphic"/>
      </feMerge>
    </filter>
    <filter id="glowWhite" x="-50%" y="-50%" width="200%" height="200%">
      <feGaussianBlur stdDeviation="4" result="coloredBlur"/>
      <feMerge>
        <feMergeNode in="coloredBlur"/>
        <feMergeNode in="SourceGraphic"/>
      </feMerge>
    </filter>
    
    <!-- Gradients for depth -->
    <radialGradient id="indigoGrad" cx="50%" cy="50%">
      <stop offset="0%" style="stop-color:#7B7BFF;stop-opacity:1" />
      <stop offset="100%" style="stop-color:#5D5DFF;stop-opacity:0.8" />
    </radialGradient>
    <radialGradient id="cyanGrad" cx="50%" cy="50%">
      <stop offset="0%" style="stop-color:#00FFDB;stop-opacity:1" />
      <stop offset="100%" style="stop-color:#00FFC2;stop-opacity:0.7" />
    </radialGradient>
  </defs>
  
  <!-- Outer glow aura -->
  <circle cx="60" cy="60" r="45" fill="#5D5DFF" opacity="0.05"/>
  <circle cx="60" cy="60" r="35" fill="#00FFC2" opacity="0.08"/>
  
  <!-- Surrounding hexagons with fill and glow -->
  <!-- Top hexagon -->
  <g filter="url(#glowIndigo)">
    <path d="M60 8 L68 13 L68 23 L60 28 L52 23 L52 13 Z" fill="url(#indigoGrad)" opacity="0.85"/>
    <path d="M60 8 L68 13 L68 23 L60 28 L52 23 L52 13 Z" fill="none" stroke="#5D5DFF" stroke-width="1.5"/>
  </g>
  
  <!-- Top Right hexagon -->
  <g filter="url(#glowCyan)">
    <path d="M86 28 L94 33 L94 43 L86 48 L78 43 L78 33 Z" fill="url(#cyanGrad)" opacity="0.75"/>
    <path d="M86 28 L94 33 L94 43 L86 48 L78 43 L78 33 Z" fill="none" stroke="#00FFC2" stroke-width="1.5"/>
  </g>
  
  <!-- Bottom Right hexagon -->
  <g filter="url(#glowCyan)">
    <path d="M86 72 L94 77 L94 87 L86 92 L78 87 L78 77 Z" fill="url(#cyanGrad)" opacity="0.75"/>
    <path d="M86 72 L94 77 L94 87 L86 92 L78 87 L78 77 Z" fill="none" stroke="#00FFC2" stroke-width="1.5"/>
  </g>
  
  <!-- Bottom hexagon -->
  <g filter="url(#glowIndigo)">
    <path d="M60 92 L68 97 L68 107 L60 112 L52 107 L52 97 Z" fill="url(#indigoGrad)" opacity="0.85"/>
    <path d="M60 92 L68 97 L68 107 L60 112 L52 107 L52 97 Z" fill="none" stroke="#5D5DFF" stroke-width="1.5"/>
  </g>
  
  <!-- Bottom Left hexagon -->
  <g filter="url(#glowIndigo)">
    <path d="M34 72 L42 77 L42 87 L34 92 L26 87 L26 77 Z" fill="url(#indigoGrad)" opacity="0.85"/>
    <path d="M34 72 L42 77 L42 87 L34 92 L26 87 L26 77 Z" fill="none" stroke="#5D5DFF" stroke-width="1.5"/>
  </g>
  
  <!-- Top Left hexagon -->
  <g filter="url(#glowCyan)">
    <path d="M34 28 L42 33 L42 43 L34 48 L26 43 L26 33 Z" fill="url(#cyanGrad)" opacity="0.75"/>
    <path d="M34 28 L42 33 L42 43 L34 48 L26 43 L26 33 Z" fill="none" stroke="#00FFC2" stroke-width="1.5"/>
  </g>
  
  <!-- Connection lines (dotted) -->
  <line x1="60" y1="28" x2="60" y2="40" stroke="#5D5DFF" stroke-width="1.5" stroke-dasharray="2,3" opacity="0.6"/>
  <line x1="78" y1="43" x2="68" y2="50" stroke="#00FFC2" stroke-width="1.5" stroke-dasharray="2,3" opacity="0.5"/>
  <line x1="78" y1="77" x2="68" y2="70" stroke="#00FFC2" stroke-width="1.5" stroke-dasharray="2,3" opacity="0.5"/>
  <line x1="60" y1="92" x2="60" y2="80" stroke="#5D5DFF" stroke-width="1.5" stroke-dasharray="2,3" opacity="0.6"/>
  <line x1="42" y1="77" x2="52" y2="70" stroke="#5D5DFF" stroke-width="1.5" stroke-dasharray="2,3" opacity="0.6"/>
  <line x1="42" y1="43" x2="52" y2="50" stroke="#00FFC2" stroke-width="1.5" stroke-dasharray="2,3" opacity="0.5"/>
  
  <!-- Central white circle with glow -->
  <g filter="url(#glowWhite)">
    <circle cx="60" cy="60" r="18" fill="#F2F2F2" opacity="0.98"/>
    <circle cx="60" cy="60" r="18" fill="none" stroke="#FFFFFF" stroke-width="2" opacity="0.5"/>
  </g>
  
  <!-- Inner ring around center -->
  <circle cx="60" cy="60" r="22" fill="none" stroke="#5D5DFF" stroke-width="1.5" opacity="0.3"/>
  
  <!-- Connection nodes with glow -->
  <circle cx="60" cy="8" r="2.5" fill="#5D5DFF" filter="url(#glowIndigo)"/>
  <circle cx="86" cy="28" r="2.5" fill="#00FFC2" filter="url(#glowCyan)"/>
  <circle cx="86" cy="92" r="2.5" fill="#00FFC2" filter="url(#glowCyan)"/>
  <circle cx="60" cy="112" r="2.5" fill="#5D5DFF" filter="url(#glowIndigo)"/>
  <circle cx="34" cy="92" r="2.5" fill="#5D5DFF" filter="url(#glowIndigo)"/>
  <circle cx="34" cy="28" r="2.5" fill="#00FFC2" filter="url(#glowCyan)"/>
</svg>
